name analog
datacolumns 19
datarows 52
range 0.4845000000000002 0.5100000000000002
endheader
time	ground_force_vx	ground_force_vy	ground_force_vz	ground_force_px	ground_force_py	ground_force_pz	l_ground_force_vx	l_ground_force_vy	l_ground_force_vz	l_ground_force_px	l_ground_force_py	l_ground_force_pz	ground_torque_x	ground_torque_y	ground_torque_z	l_ground_torque_x	l_ground_torque_y	l_ground_torque_z
0.4845000000000002	-0.0	-0.0	-0.0	-2.3999722003936768	-3.758680820465088	-816.6812133789062	-0.0	-0.0	-0.0	-0.0	-0.0	-0.0	-0.0	-0.0	-0.0	-0.0	-0.0	-0.0
0.4850000000000002	-0.0	-0.0	-0.0	-1.833890080451965	-3.200155019760132	-817.7341918945312	-0.0	-0.0	-0.0	-0.0	-0.0	-0.0	-0.0	-0.0	-0.0	-0.0	-0.0	-0.0
0.4855000000000002	-0.0	-0.0	-0.0	-1.9783989191055296	-2.3823933601379395	-813.0533447265625	-0.0	-0.0	-0.0	-0.0	-0.0	-0.0	-0.0	-0.0	-0.0	-0.0	-0.0	-0.0
0.4860000000000002	-0.0	-0.0	-0.0	-1.630092978477478	-2.0985631942749023	-811.6714477539062	-0.0	-0.0	-0.0	-0.0	-0.0	-0.0	-0.0	-0.0	-0.0	-0.0	-0.0	-0.0
0.4865000000000002	-0.0	-0.0	-0.0	-1.3540784120559692	-1.6287552118301392	-808.3658447265625	-0.0	-0.0	-0.0	-0.0	-0.0	-0.0	-0.0	-0.0	-0.0	-0.0	-0.0	-0.0
0.4870000000000002	-0.0	-0.0	-0.0	-1.2334414720535278	-1.668931484222412	-808.6541137695312	-0.0	-0.0	-0.0	-0.0	-0.0	-0.0	-0.0	-0.0	-0.0	-0.0	-0.0	-0.0
0.4875000000000002	-0.0	-0.0	-0.0	-0.5675211548805237	-1.45831561088562	-806.7906494140625	-0.0	-0.0	-0.0	-0.0	-0.0	-0.0	-0.0	-0.0	-0.0	-0.0	-0.0	-0.0
0.4880000000000002	-0.0	-0.0	-0.0	-0.9813156127929688	-1.2330925464630127	-804.190673828125	-0.0	-0.0	-0.0	-0.0	-0.0	-0.0	-0.0	-0.0	-0.0	-0.0	-0.0	-0.0
0.4885000000000002	-0.0	-0.0	-0.0	-0.5424043536186218	-1.475993514060974	-802.1705322265625	-0.0	-0.0	-0.0	-0.0	-0.0	-0.0	-0.0	-0.0	-0.0	-0.0	-0.0	-0.0
0.4890000000000002	-0.0	-0.0	-0.0	-0.4390749335289001	-1.3689899444580078	-800.134765625	-0.0	-0.0	-0.0	-0.0	-0.0	-0.0	-0.0	-0.0	-0.0	-0.0	-0.0	-0.0
0.4895000000000002	-0.0	-0.0	-0.0	-0.0823969468474388	-0.6626995205879211	-798.3403930664062	-0.0	-0.0	-0.0	-0.0	-0.0	-0.0	-0.0	-0.0	-0.0	-0.0	-0.0	-0.0
0.4900000000000002	-0.0	-0.0	-0.0	-0.2422824949026107	-1.024511218070984	-796.1679077148438	-0.0	-0.0	-0.0	-0.0	-0.0	-0.0	-0.0	-0.0	-0.0	-0.0	-0.0	-0.0
0.4905000000000002	-0.0	-0.0	-0.0	0.0063009560108184	-1.190533995628357	-793.3176879882812	-0.0	-0.0	-0.0	-0.0	-0.0	-0.0	-0.0	-0.0	-0.0	-0.0	-0.0	-0.0
0.4910000000000002	-0.0	-0.0	-0.0	0.0953941121697425	-0.5091909766197205	-793.0148315429688	-0.0	-0.0	-0.0	-0.0	-0.0	-0.0	-0.0	-0.0	-0.0	-0.0	-0.0	-0.0
0.4915000000000002	-0.0	-0.0	-0.0	-0.2041613012552261	-0.6436405181884766	-791.123046875	-0.0	-0.0	-0.0	-0.0	-0.0	-0.0	-0.0	-0.0	-0.0	-0.0	-0.0	-0.0
0.4920000000000002	-0.0	-0.0	-0.0	-0.0	-0.9287814497947692	-789.1294555664062	-0.0	-0.0	-0.0	-0.0	-0.0	-0.0	-0.0	-0.0	-0.0	-0.0	-0.0	-0.0
0.4925000000000002	-0.0	-0.0	-0.0	-0.0892105102539062	-1.8401637077331543	-788.9818115234375	-0.0	-0.0	-0.0	-0.0	-0.0	-0.0	-0.0	-0.0	-0.0	-0.0	-0.0	-0.0
0.4930000000000002	-0.0	-0.0	-0.0	-0.1784210205078125	-2.930494785308838	-787.9872436523438	-0.0	-0.0	-0.0	-0.0	-0.0	-0.0	-0.0	-0.0	-0.0	-0.0	-0.0	-0.0
0.4935000000000002	-0.0	-0.0	-0.0	-0.4775377810001373	-3.7487173080444336	-789.3156127929688	-0.0	-0.0	-0.0	-0.0	-0.0	-0.0	-0.0	-0.0	-0.0	-0.0	-0.0	-0.0
0.4940000000000002	-0.0	-0.0	-0.0	-0.5616576671600342	-4.870792388916016	-790.5211791992188	-0.0	-0.0	-0.0	-0.0	-0.0	-0.0	-0.0	-0.0	-0.0	-0.0	-0.0	-0.0
0.4945000000000002	-0.0	-0.0	-0.0	-1.0440056324005127	-5.851289749145508	-792.1826171875	-0.0	-0.0	-0.0	-0.0	-0.0	-0.0	-0.0	-0.0	-0.0	-0.0	-0.0	-0.0
0.4950000000000002	-0.0	-0.0	-0.0	-1.6057891845703125	-6.57362699508667	-797.0216064453125	-0.0	-0.0	-0.0	-0.0	-0.0	-0.0	-0.0	-0.0	-0.0	-0.0	-0.0	-0.0
0.4955000000000002	-0.0	-0.0	-0.0	-1.632573485374451	-7.192802429199219	-799.2286376953125	-0.0	-0.0	-0.0	-0.0	-0.0	-0.0	-0.0	-0.0	-0.0	-0.0	-0.0	-0.0
0.4960000000000002	-0.0	-0.0	-0.0	-1.3650681972503662	-7.281806468963623	-800.7654418945312	-0.0	-0.0	-0.0	-0.0	-0.0	-0.0	-0.0	-0.0	-0.0	-0.0	-0.0	-0.0
0.4965000000000002	-0.0	-0.0	-0.0	-1.3962955474853516	-6.867044925689697	-803.0557861328125	-0.0	-0.0	-0.0	-0.0	-0.0	-0.0	-0.0	-0.0	-0.0	-0.0	-0.0	-0.0
0.4970000000000002	-0.0	-0.0	-0.0	-0.779564380645752	-7.064610958099365	-803.5299682617188	-0.0	-0.0	-0.0	-0.0	-0.0	-0.0	-0.0	-0.0	-0.0	-0.0	-0.0	-0.0
0.4975000000000002	-0.0	-0.0	-0.0	-0.9193885326385498	-6.863040924072266	-803.8521118164062	-0.0	-0.0	-0.0	-0.0	-0.0	-0.0	-0.0	-0.0	-0.0	-0.0	-0.0	-0.0
0.4980000000000002	-0.0	-0.0	-0.0	-0.8646671175956726	-6.173965930938721	-804.6798095703125	-0.0	-0.0	-0.0	-0.0	-0.0	-0.0	-0.0	-0.0	-0.0	-0.0	-0.0	-0.0
0.4985000000000002	-0.0	-0.0	-0.0	-0.7445071339607239	-5.790220260620117	-804.4089965820312	-0.0	-0.0	-0.0	-0.0	-0.0	-0.0	-0.0	-0.0	-0.0	-0.0	-0.0	-0.0
0.4990000000000002	-0.0	-0.0	-0.0	-0.6890304088592529	-5.080432891845703	-802.8997192382812	-0.0	-0.0	-0.0	-0.0	-0.0	-0.0	-0.0	-0.0	-0.0	-0.0	-0.0	-0.0
0.4995000000000002	-0.0	-0.0	-0.0	-0.8642762899398804	-4.395193576812744	-801.8626098632812	-0.0	-0.0	-0.0	-0.0	-0.0	-0.0	-0.0	-0.0	-0.0	-0.0	-0.0	-0.0
0.5000000000000002	-0.0	-0.0	-0.0	-1.4499086141586304	-3.562519788742065	-800.54833984375	-0.0	-0.0	-0.0	-0.0	-0.0	-0.0	-0.0	-0.0	-0.0	-0.0	-0.0	-0.0
0.5005000000000002	-0.0	-0.0	-0.0	-0.9862491488456726	-3.0535717010498047	-800.1749877929688	-0.0	-0.0	-0.0	-0.0	-0.0	-0.0	-0.0	-0.0	-0.0	-0.0	-0.0	-0.0
0.5010000000000002	-0.0	-0.0	-0.0	-1.3968725204467771	-2.4347147941589355	-799.599365234375	-0.0	-0.0	-0.0	-0.0	-0.0	-0.0	-0.0	-0.0	-0.0	-0.0	-0.0	-0.0
0.5015000000000003	-0.0	-0.0	-0.0	-1.4840242862701416	-2.523953914642334	-799.7114868164062	-0.0	-0.0	-0.0	-0.0	-0.0	-0.0	-0.0	-0.0	-0.0	-0.0	-0.0	-0.0
0.5020000000000002	-0.0	-0.0	-0.0	-1.0990087985992432	-1.8736180067062376	-799.7195434570312	-0.0	-0.0	-0.0	-0.0	-0.0	-0.0	-0.0	-0.0	-0.0	-0.0	-0.0	-0.0
0.5025000000000002	-0.0	-0.0	-0.0	-1.2792479991912842	-1.515216827392578	-800.1924438476562	-0.0	-0.0	-0.0	-0.0	-0.0	-0.0	-0.0	-0.0	-0.0	-0.0	-0.0	-0.0
0.5030000000000002	-0.0	-0.0	-0.0	-1.15825355052948	-1.725163459777832	-801.4732666015625	-0.0	-0.0	-0.0	-0.0	-0.0	-0.0	-0.0	-0.0	-0.0	-0.0	-0.0	-0.0
0.5035000000000003	-0.0	-0.0	-0.0	-0.982611894607544	-1.246530532836914	-800.6691284179688	-0.0	-0.0	-0.0	-0.0	-0.0	-0.0	-0.0	-0.0	-0.0	-0.0	-0.0	-0.0
0.5040000000000002	-0.0	-0.0	-0.0	-1.0426340103149414	-1.2489314079284668	-802.314453125	-0.0	-0.0	-0.0	-0.0	-0.0	-0.0	-0.0	-0.0	-0.0	-0.0	-0.0	-0.0
0.5045000000000002	-0.0	-0.0	-0.0	-0.8028945922851562	-0.5939112901687622	-802.305908203125	-0.0	-0.0	-0.0	-0.0	-0.0	-0.0	-0.0	-0.0	-0.0	-0.0	-0.0	-0.0
0.5050000000000002	-0.0	-0.0	-0.0	-0.3868158757686615	0.4741781651973724	-802.074462890625	-0.0	-0.0	-0.0	-0.0	-0.0	-0.0	-0.0	-0.0	-0.0	-0.0	-0.0	-0.0
0.5055000000000003	-0.0	-0.0	-0.0	-0.5352630615234375	0.4755435883998871	-800.189453125	-0.0	-0.0	-0.0	-0.0	-0.0	-0.0	-0.0	-0.0	-0.0	-0.0	-0.0	-0.0
0.5060000000000002	-0.0	-0.0	-0.0	-0.7133710980415344	0.5944111347198486	-798.0672607421875	-0.0	-0.0	-0.0	-0.0	-0.0	-0.0	-0.0	-0.0	-0.0	-0.0	-0.0	-0.0
0.5065000000000002	-0.0	-0.0	-0.0	-0.7435851097106934	-0.0	-796.5386352539062	-0.0	-0.0	-0.0	-0.0	-0.0	-0.0	-0.0	-0.0	-0.0	-0.0	-0.0	-0.0
0.5070000000000002	-0.0	-0.0	-0.0	-0.8326889872550964	-1.1288412809371948	-795.4788208007812	-0.0	-0.0	-0.0	-0.0	-0.0	-0.0	-0.0	-0.0	-0.0	-0.0	-0.0	-0.0
0.5075000000000003	-0.0	-0.0	-0.0	-1.0417004823684692	-2.732877254486084	-795.5938110351562	-0.0	-0.0	-0.0	-0.0	-0.0	-0.0	-0.0	-0.0	-0.0	-0.0	-0.0	-0.0
0.5080000000000002	-0.0	-0.0	-0.0	-0.9808774590492249	-3.5639028549194336	-795.2457885742188	-0.0	-0.0	-0.0	-0.0	-0.0	-0.0	-0.0	-0.0	-0.0	-0.0	-0.0	-0.0
0.5085000000000002	-0.0	-0.0	-0.0	-1.2187635898590088	-5.526754379272461	-795.244384765625	-0.0	-0.0	-0.0	-0.0	-0.0	-0.0	-0.0	-0.0	-0.0	-0.0	-0.0	-0.0
0.5090000000000002	-0.0	-0.0	-0.0	-1.396198272705078	-6.328258514404297	-795.9544067382812	-0.0	-0.0	-0.0	-0.0	-0.0	-0.0	-0.0	-0.0	-0.0	-0.0	-0.0	-0.0
0.5095000000000003	-0.0	-0.0	-0.0	-1.098897933959961	-6.922801971435547	-794.4180297851562	-0.0	-0.0	-0.0	-0.0	-0.0	-0.0	-0.0	-0.0	-0.0	-0.0	-0.0	-0.0
0.5100000000000002	-0.0	-0.0	-0.0	-0.4179898798465729	-7.723798274993896	-793.7163696289062	-0.0	-0.0	-0.0	-0.0	-0.0	-0.0	-0.0	-0.0	-0.0	-0.0	-0.0	-0.0
